Newsreader16pt-BoldItalic.ufo
<glyph name="comma" format="2">
  <advance width="486.88"/>
  <unicode hex="002C"/>
  <outline>
    <contour>
      <point x="-138.592" y="-305.48" type="curve"/>
      <point x="-95.03999999999999" y="-369.79200000000003" type="line"/>
      <point x="260.872" y="-128.584"/>
      <point x="332.744" y="10.712000000000003"/>
      <point x="332.744" y="153.6" type="curve" smooth="yes"/>
      <point x="332.744" y="249.688"/>
      <point x="277.968" y="304.648"/>
      <point x="189.10399999999998" y="304.648" type="curve" smooth="yes"/>
      <point x="91.55199999999999" y="304.648"/>
      <point x="9.744" y="229.61599999999999"/>
      <point x="9.744" y="137.472" type="curve" smooth="yes"/>
      <point x="9.744" y="91.456"/>
      <point x="102.576" y="61.384"/>
      <point x="102.576" y="-21.927999999999997" type="curve" smooth="yes"/>
      <point x="102.576" y="-89.28"/>
      <point x="49.872" y="-175.984"/>
    </contour>
  </outline>
</glyph>
<glyph name="M" format="2">
  <advance width="1944.328"/>
  <unicode hex="004D"/>
  <anchor x="1186.176" y="1340.0" name="UCtop"/>
  <anchor x="765.624" y="0.0" name="bottom"/>
  <outline>
    <contour>
      <point x="605.0" y="1214.904" type="line"/>
      <point x="564.32" y="1189.464" type="line"/>
      <point x="657.496" y="-6.687999999999999" type="line"/>
      <point x="840.408" y="-6.687999999999999" type="line"/>
      <point x="1736.536" y="1305.464" type="line"/>
      <point x="1743.664" y="1340.0" type="line"/>
      <point x="1635.208" y="1340.0" type="line"/>
      <point x="840.656" y="169.312" type="line"/>
      <point x="934.24" y="202.36" type="line"/>
      <point x="853.896" y="1340.0" type="line"/>
      <point x="378.136" y="1340.0" type="line"/>
      <point x="365.488" y="1298.112" type="line"/>
      <point x="500.76800000000003" y="1230.096" type="line"/>
      <point x="83.56" y="104.792" type="line"/>
      <point x="-84.272" y="43.184" type="line"/>
      <point x="-97.568" y="0.0" type="line"/>
      <point x="318.648" y="0.0" type="line"/>
      <point x="331.944" y="43.184" type="line"/>
      <point x="200.072" y="103.736" type="line"/>
    </contour>
    <contour>
      <point x="1655.744" y="1340.0" type="line"/>
      <point x="1371.24" y="97.016" type="line"/>
      <point x="1218.312" y="41.888" type="line"/>
      <point x="1205.664" y="0.0" type="line"/>
      <point x="1775.656" y="0.0" type="line"/>
      <point x="1788.304" y="41.888" type="line"/>
      <point x="1663.56" y="92.072" type="line"/>
      <point x="1924.248" y="1241.576" type="line"/>
      <point x="2078.584" y="1298.112" type="line"/>
      <point x="2091.232" y="1340.0" type="line"/>
    </contour>
  </outline>
</glyph>
<glyph name="O" format="2">
  <advance width="1513.344"/>
  <unicode hex="004F"/>
  <anchor x="1015.136" y="1340.0" name="UCtop"/>
  <anchor x="633.0" y="0.0" name="bottom"/>
  <anchor x="743.336" y="0.0" name="right"/>
  <anchor x="1249.92" y="1340.0" name="horn"/>
  <outline>
    <contour>
      <point x="421.2" y="418.536" type="curve" smooth="yes"/>
      <point x="421.2" y="821.0757894736843"/>
      <point x="662.024" y="1247.784"/>
      <point x="974.416" y="1247.784" type="curve" smooth="yes"/>
      <point x="1141.192" y="1247.784"/>
      <point x="1236.552" y="1148.032"/>
      <point x="1236.552" y="921.4639999999999" type="curve" smooth="yes"/>
      <point x="1236.552" y="519.216"/>
      <point x="995.728" y="92.21600000000001"/>
      <point x="683.336" y="92.21600000000001" type="curve" smooth="yes"/>
      <point x="516.56" y="92.21600000000001"/>
      <point x="421.2" y="192.14385130111523"/>
    </contour>
    <contour>
      <point x="1521.024" y="831.608" type="curve" smooth="yes"/>
      <point x="1521.024" y="1170.664"/>
      <point x="1321.56" y="1366.48"/>
      <point x="968.4" y="1366.48" type="curve" smooth="yes"/>
      <point x="487.928" y="1366.48"/>
      <point x="136.728" y="964.464"/>
      <point x="136.728" y="508.392" type="curve" smooth="yes"/>
      <point x="136.728" y="169.336"/>
      <point x="336.192" y="-26.48"/>
      <point x="689.352" y="-26.48" type="curve" smooth="yes"/>
      <point x="1169.824" y="-26.48"/>
      <point x="1521.024" y="375.536"/>
    </contour>
  </outline>
</glyph>
<glyph name="T" format="2">
  <advance width="1307.0"/>
  <unicode hex="0054"/>
  <anchor x="924.752" y="1340.0" name="UCtop"/>
  <anchor x="529.36" y="0.0" name="bottom"/>
  <outline>
    <contour>
      <point x="1371.088" y="1217.488" type="line"/>
      <point x="1310.88" y="1252.04" type="line"/>
      <point x="1375.096" y="937.824" type="line"/>
      <point x="1427.648" y="937.824" type="line"/>
      <point x="1529.592" y="1412.536" type="line"/>
      <point x="1494.448" y="1412.536" type="line"/>
      <point x="1307.992" y="1316.224" type="line"/>
      <point x="1419.56" y="1340.0" type="line"/>
      <point x="433.904" y="1340.0" type="line"/>
      <point x="526.472" y="1316.224" type="line"/>
      <point x="402.904" y="1412.536" type="line"/>
      <point x="369.056" y="1412.536" type="line"/>
      <point x="192.488" y="953.288" type="line"/>
      <point x="243.744" y="931.696" type="line"/>
      <point x="513.992" y="1250.152" type="line"/>
      <point x="373.832" y="1217.488" type="line"/>
    </contour>
    <contour>
      <point x="757.768" y="1255.672" type="line"/>
      <point x="404.192" y="97.016" type="line"/>
      <point x="251.264" y="41.888" type="line"/>
      <point x="238.61599999999999" y="0.0" type="line"/>
      <point x="807.904" y="0.0" type="line"/>
      <point x="820.552" y="41.888" type="line"/>
      <point x="695.808" y="92.072" type="line"/>
      <point x="1051.032" y="1255.672" type="line"/>
    </contour>
  </outline>
</glyph>
<glyph name="W" format="2">
  <advance width="1958.368"/>
  <unicode hex="0057"/>
  <anchor x="1307.192" y="1340.0" name="UCtop"/>
  <anchor x="904.672" y="0.0" name="bottom"/>
  <outline>
    <contour>
      <point x="1937.04" y="1243.632" type="line"/>
      <point x="1408.4" y="236.128" type="line"/>
      <point x="1472.944" y="250.448" type="line"/>
      <point x="1445.08" y="1347.04" type="line"/>
      <point x="1255.52" y="1347.04" type="line"/>
      <point x="564.576" y="263.23199999999997" type="line"/>
      <point x="611.04" y="261.936" type="line"/>
      <point x="654.232" y="1240.392" type="line"/>
      <point x="824.864" y="1298.464" type="line"/>
      <point x="838.456" y="1340.0" type="line"/>
      <point x="252.448" y="1340.0" type="line"/>
      <point x="239.504" y="1298.464" type="line"/>
      <point x="366.392" y="1237.096" type="line"/>
      <point x="320.272" y="-7.039999999999999" type="line"/>
      <point x="506.18399999999997" y="-7.039999999999999" type="line"/>
      <point x="1211.6" y="1077.024" type="line"/>
      <point x="1152.856" y="1071.168" type="line"/>
      <point x="1194.272" y="-7.039999999999999" type="line"/>
      <point x="1380.184" y="-7.039999999999999" type="line"/>
      <point x="2069.848" y="1243.632" type="line"/>
      <point x="2223.848" y="1298.464" type="line"/>
      <point x="2236.792" y="1340.0" type="line"/>
      <point x="1811.408" y="1340.0" type="line"/>
      <point x="1798.464" y="1298.464" type="line"/>
    </contour>
  </outline>
</glyph>
<glyph name="X" format="2">
  <advance width="1413.68"/>
  <unicode hex="0058"/>
  <anchor x="984.672" y="1340.0" name="UCtop"/>
  <anchor x="575.672" y="0.0" name="bottom"/>
  <outline>
    <contour>
      <point x="757.032" y="623.784" type="line"/>
      <point x="853.816" y="689.368" type="line"/>
      <point x="1449.72" y="1238.984" type="line"/>
      <point x="1612.664" y="1298.112" type="line"/>
      <point x="1625.96" y="1340.0" type="line"/>
      <point x="1198.76" y="1340.0" type="line"/>
      <point x="1185.464" y="1298.112" type="line"/>
      <point x="1308.728" y="1240.392" type="line"/>
      <point x="811.04" y="769.92" type="line"/>
      <point x="712.848" y="707.464" type="line"/>
      <point x="43.519999999999996" y="101.016" type="line"/>
      <point x="-119.424" y="41.888" type="line"/>
      <point x="-132.72" y="0.0" type="line"/>
      <point x="299.96" y="0.0" type="line"/>
      <point x="313.256" y="41.888" type="line"/>
      <point x="191.344" y="99.608" type="line"/>
    </contour>
    <contour>
      <point x="877.728" y="99.608" type="line"/>
      <point x="707.84" y="41.888" type="line"/>
      <point x="694.544" y="0.0" type="line"/>
      <point x="1316.008" y="0.0" type="line"/>
      <point x="1329.952" y="41.888" type="line"/>
      <point x="1202.968" y="101.608" type="line"/>
      <point x="915.16" y="788.544" type="line"/>
      <point x="900.92" y="821.672" type="line"/>
      <point x="727.712" y="1241.096" type="line"/>
      <point x="899.008" y="1298.112" type="line"/>
      <point x="912.304" y="1340.0" type="line"/>
      <point x="290.84" y="1340.0" type="line"/>
      <point x="277.544" y="1298.112" type="line"/>
      <point x="402.76800000000003" y="1239.096" type="line"/>
      <point x="660.504" y="624.712" type="line"/>
      <point x="675.984" y="588.16" type="line"/>
    </contour>
  </outline>
</glyph>
<glyph name="backslash" format="2">
  <advance width="743.48"/>
  <unicode hex="005C"/>
  <outline>
    <contour>
      <point x="565.312" y="0.0" type="line"/>
      <point x="433.776" y="1340.0" type="line"/>
      <point x="323.928" y="1340.0" type="line"/>
      <point x="455.168" y="0.0" type="line"/>
    </contour>
  </outline>
</glyph>
<glyph name="l" format="2">
  <advance width="597.568"/>
  <unicode hex="006C"/>
  <anchor x="535.824" y="1385.76" name="UCtop"/>
  <anchor x="147.28" y="0.0" name="bottom"/>
  <anchor x="720.104" y="1399.0" name="right"/>
  <anchor x="683.208" y="546.0" name="mid"/>
  <outline>
    <contour>
      <point x="381.32" y="1210.976" type="curve"/>
      <point x="23.927999999999997" y="85.54400000000001" type="line" smooth="yes"/>
      <point x="-1.6799999999999997" y="7.016"/>
      <point x="34.263999999999996" y="-26.48"/>
      <point x="139.38400000000001" y="-26.48" type="curve" smooth="yes"/>
      <point x="279.576" y="-26.48"/>
      <point x="428.88" y="43.608000000000004"/>
      <point x="581.544" y="237.768" type="curve"/>
      <point x="543.176" y="276.248" type="line"/>
      <point x="436.384" y="174.512"/>
      <point x="347.344" y="134.048"/>
      <point x="246.05599999999998" y="142.696" type="curve"/>
      <point x="287.216" y="75.816" type="line"/>
      <point x="717.432" y="1425.48" type="line"/>
      <point x="684.064" y="1425.48" type="line"/>
      <point x="272.504" y="1359.632" type="line"/>
      <point x="258.672" y="1313.896" type="line"/>
      <point x="313.08" y="1280.584"/>
      <point x="347.264" y="1252.104"/>
    </contour>
  </outline>
</glyph>
<glyph name="x" format="2">
  <advance width="1026.4"/>
  <unicode hex="0078"/>
  <anchor x="628.416" y="864.96" name="top"/>
  <anchor x="403.968" y="0.0" name="bottom"/>
  <outline>
    <contour>
      <point x="558.208" y="391.856" type="line"/>
      <point x="671.912" y="549.376" type="line" smooth="yes"/>
      <point x="750.672" y="658.952"/>
      <point x="816.816" y="702.264"/>
      <point x="862.648" y="702.264" type="curve" smooth="yes"/>
      <point x="888.368" y="702.264"/>
      <point x="904.904" y="692.32"/>
      <point x="925.144" y="662.784" type="curve" smooth="yes"/>
      <point x="945.384" y="633.248"/>
      <point x="958.272" y="626.248"/>
      <point x="976.864" y="626.248" type="curve" smooth="yes"/>
      <point x="1044.768" y="626.248"/>
      <point x="1104.84" y="682.616"/>
      <point x="1104.84" y="764.464" type="curve" smooth="yes"/>
      <point x="1104.84" y="834.072"/>
      <point x="1055.824" y="891.44"/>
      <point x="966.6800000000001" y="891.44" type="curve" smooth="yes"/>
      <point x="876.904" y="891.44"/>
      <point x="796.112" y="839.776"/>
      <point x="690.136" y="694.56" type="curve" smooth="yes"/>
      <point x="536.264" y="482.352" type="line"/>
      <point x="471.656" y="486.344" type="line"/>
      <point x="349.896" y="317.528" type="line" smooth="yes"/>
      <point x="264.248" y="197.88"/>
      <point x="209.12" y="162.696"/>
      <point x="169.528" y="162.696" type="curve" smooth="yes"/>
      <point x="145.10399999999998" y="162.696"/>
      <point x="127.92" y="172.64"/>
      <point x="108.384" y="199.824" type="curve" smooth="yes"/>
      <point x="88.848" y="227.008"/>
      <point x="77.2" y="238.712"/>
      <point x="55.312" y="238.712" type="curve" smooth="yes"/>
      <point x="-11.296" y="238.712"/>
      <point x="-72.664" y="183.64"/>
      <point x="-72.664" y="100.49600000000001" type="curve" smooth="yes"/>
      <point x="-72.664" y="30.887999999999998"/>
      <point x="-24.0" y="-26.48"/>
      <point x="65.49600000000001" y="-26.48" type="curve" smooth="yes"/>
      <point x="154.568" y="-26.48"/>
      <point x="230.12" y="17.0"/>
      <point x="334.264" y="165.216" type="curve" smooth="yes"/>
      <point x="499.432" y="399.088" type="line"/>
    </contour>
    <contour>
      <point x="980.472" y="342.664" type="curve"/>
      <point x="916.6800000000001" y="342.664" type="line"/>
      <point x="834.656" y="185.248"/>
      <point x="782.64" y="144.176"/>
      <point x="723.92" y="144.176" type="curve" smooth="yes"/>
      <point x="710.808" y="144.176"/>
      <point x="708.104" y="146.88"/>
      <point x="698.752" y="191.64" type="curve" smooth="yes"/>
      <point x="573.12" y="784.392" type="line" smooth="yes"/>
      <point x="557.232" y="860.184"/>
      <point x="524.568" y="891.44"/>
      <point x="447.576" y="891.44" type="curve" smooth="yes"/>
      <point x="293.624" y="891.44"/>
      <point x="175.52" y="803.832"/>
      <point x="99.50399999999999" y="527.576" type="curve"/>
      <point x="168.48" y="527.576" type="line"/>
      <point x="216.296" y="668.784"/>
      <point x="268.76" y="712.656"/>
      <point x="315.816" y="712.656" type="curve" smooth="yes"/>
      <point x="328.168" y="712.656"/>
      <point x="330.816" y="708.952"/>
      <point x="339.112" y="672.12" type="curve" smooth="yes"/>
      <point x="466.856" y="80.21600000000001" type="line" smooth="yes"/>
      <point x="483.744" y="4.072000000000001"/>
      <point x="516.816" y="-26.48"/>
      <point x="594.512" y="-26.48" type="curve" smooth="yes"/>
      <point x="764.016" y="-26.48"/>
      <point x="874.672" y="53.903999999999996"/>
    </contour>
  </outline>
</glyph>
<glyph name="z" format="2">
  <advance width="869.24"/>
  <unicode hex="007A"/>
  <anchor x="521.304" y="864.96" name="top"/>
  <anchor x="367.76800000000003" y="0.0" name="bottom"/>
  <outline>
    <contour>
      <point x="-21.592" y="41.032" type="line"/>
      <point x="42.888" y="-20.0" type="line"/>
      <point x="919.664" y="840.816" type="line"/>
      <point x="857.296" y="905.608" type="line"/>
    </contour>
    <contour>
      <point x="113.024" y="534.88" type="line"/>
      <point x="194.528" y="653.648"/>
      <point x="234.192" y="670.48"/>
      <point x="370.784" y="633.184" type="curve" smooth="yes"/>
      <point x="589.824" y="573.424" type="line"/>
      <point x="788.448" y="774.776" type="line"/>
      <point x="442.808" y="868.44" type="line" smooth="yes"/>
      <point x="278.592" y="912.216"/>
      <point x="185.208" y="838.208"/>
      <point x="68.08" y="556.12" type="curve"/>
    </contour>
    <contour>
      <point x="438.104" y="4.776" type="line" smooth="yes"/>
      <point x="563.672" y="-53.480000000000004"/>
      <point x="637.4639999999999" y="-37.775999999999996"/>
      <point x="844.64" y="294.0" type="curve"/>
      <point x="803.104" y="325.24" type="line"/>
      <point x="684.992" y="188.904"/>
      <point x="639.144" y="176.96"/>
      <point x="534.736" y="228.072" type="curve" smooth="yes"/>
      <point x="337.256" y="324.128" type="line"/>
      <point x="145.72" y="139.976" type="line"/>
    </contour>
  </outline>
</glyph>
<glyph name="exclamdown" format="2">
  <advance width="515.008"/>
  <unicode hex="00A1"/>
  <outline>
    <contour>
      <point x="-159.176" y="-398.072" type="line" smooth="yes"/>
      <point x="-182.784" y="-473.432"/>
      <point x="-109.184" y="-506.944"/>
      <point x="-21.727999999999998" y="-506.944" type="curve" smooth="yes"/>
      <point x="65.672" y="-506.944"/>
      <point x="144.048" y="-473.784"/>
      <point x="166.952" y="-399.128" type="curve" smooth="yes"/>
      <point x="186.08800000000002" y="-330.624" type="line" smooth="yes"/>
      <point x="215.368" y="-233.208"/>
      <point x="223.304" y="-54.22400000000002"/>
      <point x="277.776" y="392.384" type="curve"/>
      <point x="213.0" y="392.384" type="line"/>
      <point x="-5.847999999999999" y="-54.22400000000002"/>
      <point x="-106.536" y="-233.208"/>
      <point x="-137.57600000000002" y="-330.624" type="curve" smooth="yes"/>
    </contour>
    <contour>
      <point x="318.944" y="552.072" type="curve" smooth="yes"/>
      <point x="424.568" y="552.072"/>
      <point x="505.896" y="633.568"/>
      <point x="505.896" y="740.616" type="curve" smooth="yes"/>
      <point x="505.896" y="818.0"/>
      <point x="455.76800000000003" y="877.552"/>
      <point x="367.144" y="877.552" type="curve" smooth="yes"/>
      <point x="261.52" y="877.552"/>
      <point x="180.192" y="796.056"/>
      <point x="180.192" y="689.008" type="curve" smooth="yes"/>
      <point x="180.192" y="611.624"/>
      <point x="230.32" y="552.072"/>
    </contour>
  </outline>
</glyph>
<glyph name="plusminus" format="2">
  <advance width="1000.0"/>
  <unicode hex="00B1"/>
  <outline>
    <contour>
      <point x="565.56" y="864.96" type="line"/>
      <point x="335.896" y="112.08" type="line"/>
      <point x="466.664" y="112.08" type="line"/>
      <point x="696.328" y="864.96" type="line"/>
    </contour>
    <contour>
      <point x="158.504" y="549.96" type="line"/>
      <point x="120.84" y="427.08" type="line"/>
      <point x="873.72" y="427.08" type="line"/>
      <point x="911.384" y="549.96" type="line"/>
    </contour>
    <contour>
      <point x="28.927999999999997" y="122.88" type="line"/>
      <point x="-8.736" y="0.0" type="line"/>
      <point x="744.144" y="0.0" type="line"/>
      <point x="781.808" y="122.88" type="line"/>
    </contour>
  </outline>
</glyph>
<glyph name="uni00B3" format="2">
  <advance width="655.008"/>
  <unicode hex="00B3"/>
  <outline>
    <contour>
      <point x="357.944" y="929.096" type="line"/>
      <point x="396.352" y="936.504" type="line" smooth="yes"/>
      <point x="496.6302857142857" y="955.6605714285714"/>
      <point x="537.448" y="926.688"/>
      <point x="537.448" y="861.648" type="curve" smooth="yes"/>
      <point x="537.448" y="740.592"/>
      <point x="458.592" y="652.552"/>
      <point x="360.944" y="652.552" type="curve" smooth="yes"/>
      <point x="270.0" y="652.552"/>
      <point x="263.888" y="748.048"/>
      <point x="192.168" y="748.048" type="curve" smooth="yes"/>
      <point x="144.04" y="748.048"/>
      <point x="121.856" y="714.512"/>
      <point x="121.856" y="678.144" type="curve" smooth="yes"/>
      <point x="121.856" y="626.48"/>
      <point x="169.52" y="574.112"/>
      <point x="332.64" y="574.112" type="curve" smooth="yes"/>
      <point x="573.488" y="574.112"/>
      <point x="737.56" y="706.704"/>
      <point x="737.56" y="870.056" type="curve" smooth="yes"/>
      <point x="737.56" y="969.184"/>
      <point x="664.416" y="1034.848"/>
      <point x="546.808" y="1029.664" type="curve"/>
      <point x="542.88" y="1024.96" type="line"/>
      <point x="685.712" y="1050.408"/>
      <point x="753.6" y="1129.76"/>
      <point x="753.6" y="1216.944" type="curve" smooth="yes"/>
      <point x="753.6" y="1297.76"/>
      <point x="692.488" y="1362.424"/>
      <point x="576.992" y="1362.424" type="curve" smooth="yes"/>
      <point x="421.72" y="1362.424"/>
      <point x="332.408" y="1281.664"/>
      <point x="279.392" y="1127.632" type="curve"/>
      <point x="330.24" y="1107.912" type="line"/>
      <point x="365.832" y="1190.784"/>
      <point x="410.408" y="1224.248"/>
      <point x="480.872" y="1224.248" type="curve" smooth="yes"/>
      <point x="534.8" y="1224.248"/>
      <point x="569.152" y="1195.08"/>
      <point x="569.152" y="1146.264" type="curve" smooth="yes"/>
      <point x="569.152" y="1080.152"/>
      <point x="528.744" y="1029.576"/>
      <point x="351.168" y="987.648" type="curve"/>
    </contour>
  </outline>
</glyph>
<glyph name="AE" format="2">
  <advance width="1971.088"/>
  <unicode hex="00C6"/>
  <anchor x="1311.984" y="1340.0" name="UCtop"/>
  <anchor x="929.832" y="0.0" name="bottom"/>
  <outline>
    <contour>
      <point x="150.944" y="95.312" type="line"/>
      <point x="1163.872" y="1249.096" type="line"/>
      <point x="1152.872" y="1255.744" type="line"/>
      <point x="799.056" y="97.016" type="line"/>
      <point x="646.128" y="41.888" type="line"/>
      <point x="633.48" y="0.0" type="line"/>
      <point x="1063.08" y="0.0" type="line"/>
      <point x="1471.024" y="1340.0" type="line"/>
      <point x="867.72" y="1340.0" type="line"/>
      <point x="855.072" y="1297.76" type="line"/>
      <point x="1015.6" y="1231.32" type="line"/>
      <point x="17.448" y="95.312" type="line"/>
      <point x="-140.072" y="41.888" type="line"/>
      <point x="-153.016" y="0.0" type="line"/>
      <point x="273.056" y="0.0" type="line"/>
      <point x="286.0" y="41.888" type="line"/>
    </contour>
    <contour>
      <point x="1660.704" y="-73.256" type="line"/>
      <point x="1692.552" y="-73.256" type="line"/>
      <point x="1925.896" y="405.36" type="line"/>
      <point x="1878.584" y="430.896" type="line"/>
      <point x="1524.264" y="77.072" type="line"/>
      <point x="1622.056" y="113.92" type="line"/>
      <point x="949.072" y="113.92" type="line"/>
      <point x="911.0" y="0.0" type="line"/>
      <point x="1558.224" y="0.0" type="line"/>
    </contour>
    <contour>
      <point x="420.92" y="448.92" type="line"/>
      <point x="974.008" y="448.92" type="line"/>
      <point x="1010.08" y="559.544" type="line"/>
      <point x="457.344" y="559.544" type="line"/>
    </contour>
    <contour>
      <point x="1514.112" y="441.0" type="line"/>
      <point x="1607.144" y="441.0" type="line"/>
      <point x="1687.144" y="703.0" type="line"/>
      <point x="1767.144" y="965.0" type="line"/>
      <point x="1674.112" y="965.0" type="line"/>
      <point x="1590.0" y="759.608" type="line"/>
      <point x="1142.888" y="759.608" type="line"/>
      <point x="1109.112" y="646.392" type="line"/>
      <point x="1556.224" y="646.392" type="line"/>
    </contour>
    <contour>
      <point x="1965.272" y="942.744" type="line"/>
      <point x="2024.288" y="942.744" type="line"/>
      <point x="2086.808" y="1406.496" type="line"/>
      <point x="2058.2" y="1406.496" type="line"/>
      <point x="1915.816" y="1340.0" type="line"/>
      <point x="1321.0" y="1340.0" type="line"/>
      <point x="1283.576" y="1226.08" type="line"/>
      <point x="1926.648" y="1226.08" type="line"/>
      <point x="1883.704" y="1265.168" type="line"/>
    </contour>
  </outline>
</glyph>
<glyph name="OE" format="2">
  <advance width="2042.984"/>
  <unicode hex="0152"/>
  <outline>
    <contour>
      <point x="1251.36" y="1340.0" type="line"/>
      <point x="841.36" y="0.0" type="line"/>
      <point x="1134.624" y="0.0" type="line"/>
      <point x="1543.976" y="1340.0" type="line"/>
    </contour>
    <contour>
      <point x="1094.96" y="1340.0" type="line" smooth="yes"/>
      <point x="497.016" y="1340.0"/>
      <point x="134.192" y="964.168"/>
      <point x="134.192" y="507.824" type="curve" smooth="yes"/>
      <point x="134.192" y="220.56"/>
      <point x="317.456" y="0.0"/>
      <point x="757.512" y="0.0" type="curve" smooth="yes"/>
      <point x="1630.12" y="0.0" type="line"/>
      <point x="1732.6" y="-73.256" type="line"/>
      <point x="1764.448" y="-73.256" type="line"/>
      <point x="1997.792" y="405.36" type="line"/>
      <point x="1950.48" y="430.896" type="line"/>
      <point x="1596.16" y="77.072" type="line"/>
      <point x="1693.952" y="113.92" type="line"/>
      <point x="851.12" y="113.92" type="line"/>
      <point x="565.576" y="113.92"/>
      <point x="429.032" y="256.264"/>
      <point x="429.032" y="485.424" type="curve" smooth="yes"/>
      <point x="429.032" y="895.968"/>
      <point x="661.488" y="1226.08"/>
      <point x="1092.336" y="1226.08" type="curve" smooth="yes"/>
      <point x="1998.544" y="1226.08" type="line"/>
      <point x="1955.6" y="1265.168" type="line"/>
      <point x="2037.1680000000001" y="942.744" type="line"/>
      <point x="2096.184" y="942.744" type="line"/>
      <point x="2158.704" y="1406.496" type="line"/>
      <point x="2130.096" y="1406.496" type="line"/>
      <point x="1987.712" y="1340.0" type="line"/>
    </contour>
    <contour>
      <point x="1679.04" y="441.0" type="line"/>
      <point x="1759.04" y="703.0" type="line"/>
      <point x="1839.04" y="965.0" type="line"/>
      <point x="1746.008" y="965.0" type="line"/>
      <point x="1661.896" y="759.608" type="line"/>
      <point x="1214.784" y="759.608" type="line"/>
      <point x="1181.008" y="646.392" type="line"/>
      <point x="1628.12" y="646.392" type="line"/>
      <point x="1586.008" y="441.0" type="line"/>
    </contour>
  </outline>
</glyph>
<glyph name="Uogonek" format="2">
  <advance width="1480.88"/>
  <unicode hex="0172"/>
  <outline>
    <contour>
      <point x="508.048" y="537.976" type="curve" smooth="yes"/>
      <point x="723.032" y="1242.984" type="line"/>
      <point x="875.96" y="1298.112" type="line"/>
      <point x="888.608" y="1340.0" type="line"/>
      <point x="319.32" y="1340.0" type="line"/>
      <point x="306.672" y="1298.112" type="line"/>
      <point x="431.416" y="1247.928" type="line"/>
      <point x="207.416" y="515.224" type="line" smooth="yes"/>
      <point x="103.488" y="175.38400000000001"/>
      <point x="299.648" y="-26.48"/>
      <point x="673.936" y="-26.48" type="curve" smooth="yes"/>
      <point x="994.392" y="-26.48"/>
      <point x="1209.04" y="133.2"/>
      <point x="1312.744" y="472.424" type="curve" smooth="yes"/>
      <point x="1548.856" y="1245.576" type="line"/>
      <point x="1701.784" y="1298.112" type="line"/>
      <point x="1714.432" y="1340.0" type="line"/>
      <point x="1322.248" y="1340.0" type="line"/>
      <point x="1309.6" y="1298.112" type="line"/>
      <point x="1442.768" y="1246.632" type="line"/>
      <point x="1224.32" y="531.768" type="line" smooth="yes"/>
      <point x="1142.04" y="261.52"/>
      <point x="992.6800000000001" y="160.04000000000002"/>
      <point x="777.736" y="160.04000000000002" type="curve" smooth="yes"/>
      <point x="522.544" y="160.04000000000002"/>
      <point x="429.528" y="280.064"/>
    </contour>
    <contour>
      <point x="564.552" y="-320.728" type="curve" smooth="yes"/>
      <point x="564.552" y="-262.6"/>
      <point x="591.312" y="-194.488"/>
      <point x="710.3199999999999" y="-66.664" type="curve" smooth="yes"/>
      <point x="810.128" y="46.0" type="line"/>
      <point x="740.336" y="46.0" type="line"/>
      <point x="586.328" y="-105.21600000000001" type="line" smooth="yes"/>
      <point x="427.008" y="-256.04"/>
      <point x="406.728" y="-326.856"/>
      <point x="406.728" y="-389.152" type="curve" smooth="yes"/>
      <point x="406.728" y="-469.096"/>
      <point x="459.432" y="-530.0"/>
      <point x="547.8" y="-530.0" type="curve" smooth="yes"/>
      <point x="637.984" y="-530.0"/>
      <point x="699.28" y="-492.424"/>
      <point x="814.056" y="-381.664" type="curve"/>
      <point x="787.6320000000001" y="-340.112" type="line"/>
      <point x="721.072" y="-388.432"/>
      <point x="687.368" y="-402.784"/>
      <point x="646.368" y="-402.784" type="curve" smooth="yes"/>
      <point x="592.72" y="-402.784"/>
      <point x="564.552" y="-370.192"/>
    </contour>
  </outline>
</glyph>
<glyph name="ohorn" format="2">
  <advance width="1001.84"/>
  <unicode hex="01A1"/>
  <anchor x="610.76" y="864.96" name="top"/>
  <anchor x="353.912" y="0.0" name="bottom"/>
  <outline>
    <contour>
      <point x="385.504" y="66.44" type="curve" smooth="yes"/>
      <point x="331.016" y="66.44"/>
      <point x="304.736" y="102.112"/>
      <point x="304.736" y="203.488" type="curve" smooth="yes"/>
      <point x="304.736" y="470.32"/>
      <point x="457.384" y="798.52"/>
      <point x="586.56" y="798.52" type="curve" smooth="yes"/>
      <point x="641.048" y="798.52"/>
      <point x="667.328" y="762.848"/>
      <point x="667.328" y="661.472" type="curve" smooth="yes"/>
      <point x="667.328" y="394.64"/>
      <point x="514.68" y="66.44"/>
    </contour>
    <contour>
      <point x="922.376" y="554.08" type="curve" smooth="yes"/>
      <point x="922.376" y="656.08"/>
      <point x="891.7280000000001" y="746.208"/>
      <point x="834.56" y="798.856" type="curve"/>
      <point x="832.448" y="779.616" type="line"/>
      <point x="1017.04" y="763.856"/>
      <point x="1131.424" y="866.648"/>
      <point x="1131.424" y="1029.976" type="curve" smooth="yes"/>
      <point x="1131.424" y="1095.824"/>
      <point x="1095.056" y="1135.248"/>
      <point x="1033.448" y="1135.248" type="curve" smooth="yes"/>
      <point x="966.6" y="1135.248"/>
      <point x="919.64" y="1092.768"/>
      <point x="919.64" y="1044.12" type="curve" smooth="yes"/>
      <point x="919.64" y="1026.656"/>
      <point x="933.12" y="998.344"/>
      <point x="933.12" y="958.2" type="curve" smooth="yes"/>
      <point x="933.12" y="900.424"/>
      <point x="906.232" y="859.424"/>
      <point x="822.472" y="859.424" type="curve" smooth="yes"/>
      <point x="748.4" y="859.424"/>
      <point x="679.904" y="891.44"/>
      <point x="585.32" y="891.44" type="curve" smooth="yes"/>
      <point x="289.272" y="891.44"/>
      <point x="49.688" y="632.896"/>
      <point x="49.688" y="310.88" type="curve" smooth="yes"/>
      <point x="49.688" y="105.792"/>
      <point x="167.48" y="-26.48"/>
      <point x="386.744" y="-26.48" type="curve" smooth="yes"/>
      <point x="682.792" y="-26.48"/>
      <point x="922.376" y="232.064"/>
    </contour>
  </outline>
</glyph>
<glyph name="hookabovecomb" format="2">
  <unicode hex="0309"/>
  <anchor x="131.296" y="864.96" name="_top"/>
  <anchor x="276.056" y="1339.648" name="top"/>
  <outline>
    <contour>
      <point x="69.896" y="1219.728" type="line"/>
      <point x="252.2" y="1221.984"/>
      <point x="277.72" y="1198.76"/>
      <point x="277.72" y="1160.704" type="curve" smooth="yes"/>
      <point x="277.72" y="1117.072"/>
      <point x="241.128" y="1088.2"/>
      <point x="103.296" y="1066.032" type="curve"/>
      <point x="102.24" y="989.296" type="line"/>
      <point x="370.288" y="1032.592"/>
      <point x="431.104" y="1109.576"/>
      <point x="431.104" y="1225.296" type="curve" smooth="yes"/>
      <point x="431.104" y="1318.736"/>
      <point x="362.608" y="1375.2"/>
      <point x="130.528" y="1381.0" type="curve"/>
    </contour>
  </outline>
</glyph>
<glyph name="endash" format="2">
  <advance width="951.4159999999999"/>
  <unicode hex="2013"/>
  <outline>
    <contour>
      <point x="105.44800000000001" y="495.904" type="line"/>
      <point x="73.264" y="389.056" type="line"/>
      <point x="852.264" y="389.056" type="line"/>
      <point x="884.448" y="495.904" type="line"/>
    </contour>
  </outline>
</glyph>
<glyph name="emdash" format="2">
  <advance width="1265.416"/>
  <unicode hex="2014"/>
  <outline>
    <contour>
      <point x="105.44800000000001" y="495.904" type="line"/>
      <point x="73.264" y="389.056" type="line"/>
      <point x="1165.264" y="389.056" type="line"/>
      <point x="1198.448" y="495.904" type="line"/>
    </contour>
  </outline>
</glyph>
<glyph name="quoteright" format="2">
  <advance width="489.752"/>
  <unicode hex="2019"/>
  <outline>
    <contour>
      <point x="206.264" y="861.584" type="curve"/>
      <point x="234.984" y="787.496" type="line"/>
      <point x="563.4" y="916.568"/>
      <point x="652.176" y="1055.712"/>
      <point x="652.176" y="1216.336" type="curve" smooth="yes"/>
      <point x="652.176" y="1308.76"/>
      <point x="599.936" y="1359.072"/>
      <point x="510.832" y="1359.072" type="curve" smooth="yes"/>
      <point x="400.32" y="1359.072"/>
      <point x="326.288" y="1278.152"/>
      <point x="326.288" y="1188.896" type="curve" smooth="yes"/>
      <point x="326.288" y="1151.88"/>
      <point x="444.672" y="1137.032"/>
      <point x="444.672" y="1057.976" type="curve" smooth="yes"/>
      <point x="444.672" y="1000.7448247334235"/>
      <point x="388.912" y="939.288"/>
    </contour>
  </outline>
</glyph>
<glyph name="guilsinglleft" format="2">
  <advance width="570.056"/>
  <unicode hex="2039"/>
  <outline>
    <contour>
      <point x="282.952" y="480.376" type="line"/>
      <point x="240.264" y="341.256" type="line"/>
      <point x="621.904" y="810.144" type="line"/>
      <point x="572.944" y="859.68" type="line"/>
      <point x="63.224000000000004" y="471.68" type="line"/>
      <point x="40.56" y="396.8" type="line"/>
      <point x="319.76" y="8.8" type="line"/>
      <point x="382.368" y="38.224000000000004" type="line"/>
    </contour>
  </outline>
</glyph>
<glyph name="f_f_i" format="2">
  <advance width="1796.488"/>
  <unicode hex="FB03"/>
  <outline>
    <contour>
      <point x="297.728" y="785.168" type="curve" smooth="yes"/>
      <point x="107.328" y="-133.584" type="line" smooth="yes"/>
      <point x="60.32" y="-365.552"/>
      <point x="3.2960000000000003" y="-420.8"/>
      <point x="-79.544" y="-420.8" type="curve" smooth="yes"/>
      <point x="-114.84" y="-420.8"/>
      <point x="-149.192" y="-402.56"/>
      <point x="-191.8" y="-345.528" type="curve" smooth="yes"/>
      <point x="-234.408" y="-288.496"/>
      <point x="-258.704" y="-264.44"/>
      <point x="-282.76" y="-264.44" type="curve" smooth="yes"/>
      <point x="-337.48" y="-264.44"/>
      <point x="-383.144" y="-311.032"/>
      <point x="-383.144" y="-376.712" type="curve" smooth="yes"/>
      <point x="-383.144" y="-464.8"/>
      <point x="-314.776" y="-530.0"/>
      <point x="-167.024" y="-530.0" type="curve" smooth="yes"/>
      <point x="93.024" y="-530.0"/>
      <point x="314.2" y="-333.448"/>
      <point x="455.544" y="289.552" type="curve" smooth="yes"/>
      <point x="620.672" y="1027.456" type="line" smooth="yes"/>
      <point x="664.3199999999999" y="1221.48"/>
      <point x="733.88" y="1285.304"/>
      <point x="847.832" y="1285.304" type="curve" smooth="yes"/>
      <point x="946.776" y="1285.304"/>
      <point x="1019.144" y="1230.936"/>
      <point x="1073.696" y="1138.312" type="curve"/>
      <point x="1215.336" y="1288.136" type="line"/>
      <point x="1172.872" y="1350.448"/>
      <point x="1070.84" y="1399.0"/>
      <point x="938.6800000000001" y="1399.0" type="curve" smooth="yes"/>
      <point x="648.4639999999999" y="1399.0"/>
      <point x="381.872" y="1191.856"/>
    </contour>
    <contour>
      <point x="882.48" y="811.648" type="curve" smooth="yes"/>
      <point x="674.84" y="-133.504" type="line" smooth="yes"/>
      <point x="633.168" y="-330.368"/>
      <point x="552.328" y="-390.8"/>
      <point x="440.576" y="-390.8" type="curve" smooth="yes"/>
      <point x="356.304" y="-390.8"/>
      <point x="293.064" y="-323.992"/>
      <point x="260.896" y="-207.56" type="curve"/>
      <point x="101.28" y="-343.4" type="line"/>
      <point x="137.01600000000002" y="-428.20799999999997"/>
      <point x="242.88" y="-500.0"/>
      <point x="392.03999999999996" y="-500.0" type="curve" smooth="yes"/>
      <point x="654.312" y="-500.0"/>
      <point x="877.384" y="-298.872"/>
      <point x="1024.152" y="300.112" type="curve" smooth="yes"/>
      <point x="1205.424" y="1053.936" type="line" smooth="yes"/>
      <point x="1251.664" y="1247.96"/>
      <point x="1307.616" y="1311.784"/>
      <point x="1413.144" y="1311.784" type="curve" smooth="yes"/>
      <point x="1470.848" y="1311.784"/>
      <point x="1527.216" y="1276.952"/>
      <point x="1575.232" y="1215.88" type="curve" smooth="yes"/>
      <point x="1623.248" y="1154.808"/>
      <point x="1643.952" y="1141.808"/>
      <point x="1658.064" y="1141.808" type="curve" smooth="yes"/>
      <point x="1718.656" y="1141.808"/>
      <point x="1775.688" y="1191.176"/>
      <point x="1775.688" y="1262.504" type="curve" smooth="yes"/>
      <point x="1775.688" y="1352.52"/>
      <point x="1697.632" y="1425.48"/>
      <point x="1526.6" y="1425.48" type="curve" smooth="yes"/>
      <point x="1231.92" y="1425.48"/>
      <point x="971.808" y="1215.744"/>
    </contour>
    <contour>
      <point x="94.03999999999999" y="766.168" type="line"/>
      <point x="1551.792" y="766.168" type="line"/>
      <point x="1473.624" y="785.688" type="line"/>
      <point x="1235.232" y="85.54400000000001" type="line" smooth="yes"/>
      <point x="1208.328" y="8.072000000000001"/>
      <point x="1241.696" y="-26.48"/>
      <point x="1337.728" y="-26.48" type="curve" smooth="yes"/>
      <point x="1472.088" y="-26.48"/>
      <point x="1609.728" y="50.088"/>
      <point x="1760.448" y="237.768" type="curve"/>
      <point x="1722.08" y="276.896" type="line"/>
      <point x="1619.176" y="179.696"/>
      <point x="1536.616" y="135.344"/>
      <point x="1439.216" y="140.10399999999998" type="curve"/>
      <point x="1500.28" y="72.296" type="line"/>
      <point x="1774.128" y="891.44" type="line"/>
      <point x="1735.392" y="891.44" type="line"/>
      <point x="1682.968" y="874.904"/>
      <point x="1596.88" y="864.96"/>
      <point x="1520.696" y="864.96" type="curve" smooth="yes"/>
      <point x="112.28" y="864.96" type="line"/>
    </contour>
  </outline>
</glyph>
<glyph name="uni0302_tildecomb" format="2">
  <anchor x="131.944" y="864.96" name="_top"/>
  <outline>
    <contour>
      <point x="256.64" y="1099.792" type="line"/>
      <point x="174.07999999999998" y="1099.792" type="line"/>
      <point x="346.32" y="967.0" type="line"/>
      <point x="436.424" y="967.0" type="line"/>
      <point x="316.904" y="1204.0" type="line"/>
      <point x="154.856" y="1204.0" type="line"/>
      <point x="-109.312" y="967.0" type="line"/>
      <point x="4.68" y="967.0" type="line"/>
    </contour>
    <contour>
      <point x="566.144" y="1476.0" type="curve"/>
      <point x="491.648" y="1476.0" type="line"/>
      <point x="461.296" y="1428.424"/>
      <point x="436.296" y="1411.072"/>
      <point x="396.168" y="1411.072" type="curve" smooth="yes"/>
      <point x="343.464" y="1411.072"/>
      <point x="277.496" y="1482.352"/>
      <point x="202.184" y="1482.352" type="curve" smooth="yes"/>
      <point x="127.776" y="1482.352"/>
      <point x="74.224" y="1431.72"/>
      <point x="-11.496000000000002" y="1275.0" type="curve"/>
      <point x="62.352" y="1275.0" type="line"/>
      <point x="93.056" y="1322.576"/>
      <point x="118.352" y="1339.928"/>
      <point x="157.832" y="1339.928" type="curve" smooth="yes"/>
      <point x="211.184" y="1339.928"/>
      <point x="277.20799999999997" y="1269.0"/>
      <point x="352.168" y="1269.0" type="curve" smooth="yes"/>
      <point x="426.576" y="1269.0"/>
      <point x="480.776" y="1319.28"/>
    </contour>
  </outline>
</glyph>
<glyph name="uni030F.case" format="2">
  <anchor x="277.056" y="1340.0" name="_UCtop"/>
  <anchor x="391.704" y="1716.0" name="UCtop"/>
  <outline>
    <contour>
      <point x="252.144" y="1476.0" type="line"/>
      <point x="180.976" y="1716.0" type="line"/>
      <point x="-55.0" y="1716.0" type="line"/>
      <point x="-63.424" y="1683.504" type="line"/>
      <point x="175.056" y="1476.0" type="line"/>
    </contour>
    <contour>
      <point x="502.824" y="1476.0" type="line"/>
      <point x="528.504" y="1716.0" type="line"/>
      <point x="295.864" y="1716.0" type="line"/>
      <point x="289.384" y="1689.336" type="line"/>
      <point x="427.664" y="1476.0" type="line"/>
    </contour>
  </outline>
</glyph>
<glyph name="uni20A9.1" format="2">
  <advance width="1229.6"/>
  <outline>
    <contour>
      <point x="802.8" y="955.848" type="line"/>
      <point x="765.392" y="950.92" type="line"/>
      <point x="716.12" y="-7.039999999999999" type="line"/>
      <point x="890.7280000000001" y="-7.039999999999999" type="line"/>
      <point x="1410.384" y="1263.0" type="line"/>
      <point x="1514.216" y="1296.52" type="line"/>
      <point x="1527.808" y="1340.0" type="line"/>
      <point x="1223.24" y="1340.0" type="line"/>
      <point x="1209.944" y="1296.52" type="line"/>
      <point x="1308.832" y="1264.944" type="line"/>
      <point x="935.9200000000001" y="343.048" type="line"/>
      <point x="973.0" y="352.552" type="line"/>
      <point x="1024.864" y="1347.04" type="line"/>
      <point x="929.312" y="1347.04" type="line"/>
      <point x="303.24" y="237.96" type="line"/>
      <point x="394.432" y="318.96000000000004" type="line"/>
      <point x="578.9680000000001" y="1260.296" type="line"/>
      <point x="699.472" y="1296.52" type="line"/>
      <point x="713.064" y="1340.0" type="line"/>
      <point x="249.072" y="1340.0" type="line"/>
      <point x="235.48" y="1296.52" type="line"/>
      <point x="318.664" y="1257.944" type="line"/>
      <point x="82.168" y="-7.039999999999999" type="line"/>
      <point x="259.368" y="-7.039999999999999" type="line"/>
    </contour>
    <contour>
      <point x="1067.128" y="519.328" type="line"/>
      <point x="1269.456" y="519.328" type="line"/>
      <point x="1299.88" y="618.544" type="line"/>
      <point x="1106.904" y="618.544" type="line"/>
    </contour>
    <contour>
      <point x="324.20799999999997" y="618.544" type="line"/>
      <point x="46.168" y="618.544" type="line"/>
      <point x="16.392" y="519.328" type="line"/>
      <point x="315.20799999999997" y="519.328" type="line"/>
    </contour>
    <contour>
      <point x="1180.776" y="802.656" type="line"/>
      <point x="1356.584" y="802.656" type="line"/>
      <point x="1386.36" y="901.872" type="line"/>
      <point x="1220.2" y="901.872" type="line"/>
    </contour>
    <contour>
      <point x="351.728" y="901.872" type="line"/>
      <point x="132.944" y="901.872" type="line"/>
      <point x="102.52" y="802.656" type="line"/>
      <point x="342.728" y="802.656" type="line"/>
    </contour>
  </outline>
</glyph>
